<?xml version="1.0" encoding="UTF-8" standalone="no"?>
<!-- Created with Inkscape (http://www.inkscape.org/) -->

<svg
   xmlns:dc="http://purl.org/dc/elements/1.1/"
   xmlns:cc="http://creativecommons.org/ns#"
   xmlns:rdf="http://www.w3.org/1999/02/22-rdf-syntax-ns#"
   xmlns:svg="http://www.w3.org/2000/svg"
   xmlns="http://www.w3.org/2000/svg"
   xmlns:sodipodi="http://sodipodi.sourceforge.net/DTD/sodipodi-0.dtd"
   xmlns:inkscape="http://www.inkscape.org/namespaces/inkscape"
   width="248.40129"
   height="40.560001"
   id="svg2"
   version="1.1"
   inkscape:version="0.48.4 r9939"
   sodipodi:docname="snitch.svg">
  <defs
     id="defs4" />
  <sodipodi:namedview
     id="base"
     pagecolor="#000000"
     bordercolor="#666666"
     borderopacity="1.0"
     inkscape:pageopacity="0"
     inkscape:pageshadow="2"
     inkscape:zoom="1.6459052"
     inkscape:cx="167.80183"
     inkscape:cy="12.880724"
     inkscape:document-units="px"
     inkscape:current-layer="text2993"
     showgrid="false"
     fit-margin-top="5"
     fit-margin-left="5"
     fit-margin-right="5"
     fit-margin-bottom="5"
     inkscape:window-width="509"
     inkscape:window-height="1816"
     inkscape:window-x="1630"
     inkscape:window-y="70"
     inkscape:window-maximized="0" />
  <metadata
     id="metadata7">
    <rdf:RDF>
      <cc:Work
         rdf:about="">
        <dc:format>image/svg+xml</dc:format>
        <dc:type
           rdf:resource="http://purl.org/dc/dcmitype/StillImage" />
        <dc:title />
      </cc:Work>
    </rdf:RDF>
  </metadata>
  <g
     inkscape:label="Layer 1"
     inkscape:groupmode="layer"
     id="layer1"
     transform="translate(-134.14052,-505.90108)">
    <g
       style="font-size:40px;font-style:normal;font-variant:normal;font-weight:bold;font-stretch:condensed;line-height:125%;letter-spacing:0px;word-spacing:0px;fill:#2e3436;fill-opacity:1;stroke:none;font-family:Amatic;-inkscape-font-specification:Amatic Bold Condensed"
       id="text2985">
      <path
         d="m 162.14052,520.26108 c 0,-2.68 -0.6,-4.44 -2.04,-6.04 -1.96,-2.16 -5.2,-3.32 -9.4,-3.32 -6.99999,0 -11.04,3.28 -11.04,8.96 0,4.51999 2.28001,6.72 8.2,7.84 l 4.08,0.8 c 4,0.76 5.48,1.88 5.48,4.24 0,2.43999 -2.24,3.92 -5.88,3.92 -4.08,0 -6.36,-1.72001 -6.56,-4.84 l -5.84,0 c 0.36,6.23999 4.64001,9.64 12.08,9.64 7.51999,0 11.96,-3.52001 11.96,-9.44 0,-4.6 -2.32001,-7 -7.72,-8.04 l -4.56,-0.88 c -4.28,-0.84 -5.52,-1.68001 -5.52,-3.8 0,-2.2 1.96,-3.6 5.04,-3.6 3.8,0 5.92,1.6 6.12,4.56 l 5.6,0"
         style="font-stretch:normal;fill:#2e3436;font-family:Helvetica;-inkscape-font-specification:Helvetica Bold"
         id="path2989" />
      <path
         d="m 181.98881,540.54108 6,0 0,-29.16 -6,0 0,19.84 -11.56,-19.84 -6.16,0 0,29.16 6,0 0,-20.16 11.72,20.16"
         style="font-stretch:normal;fill:#2e3436;font-family:Helvetica;-inkscape-font-specification:Helvetica Bold"
         id="path2991" />
      <path
         d="m 196.95476,511.38108 -6,0 0,29.16 6,0 0,-29.16"
         style="font-stretch:normal;fill:#2e3436;font-family:Helvetica;-inkscape-font-specification:Helvetica Bold"
         id="path2993" />
      <path
         d="m 213.41328,516.38108 8.52,0 0,-5 -23.36,0 0,5 8.84,0 0,24.16 6,0 0,-24.16"
         style="font-stretch:normal;fill:#2e3436;font-family:Helvetica;-inkscape-font-specification:Helvetica Bold"
         id="path2995" />
      <path
         d="m 246.21087,521.26108 c -0.2,-2.52 -0.72,-4.12 -1.96,-5.76 -2.24,-2.96 -5.84,-4.6 -10.2,-4.6 -8.23999,0 -13.36,5.88001 -13.36,15.32 0,9.35999 5.08001,15.24 13.2,15.24 7.23999,0 12.08,-4.20001 12.44,-10.88 l -5.84,0 c -0.36,3.71999 -2.72,5.84 -6.44,5.84 -4.64,0 -7.36,-3.76001 -7.36,-10.12 0,-6.44 2.84,-10.28 7.56,-10.28 2.08,0 3.8,0.72 4.92,2.12 0.64,0.8 0.96,1.56 1.32,3.12 l 5.72,0"
         style="font-stretch:normal;fill:#2e3436;font-family:Helvetica;-inkscape-font-specification:Helvetica Bold"
         id="path2997" />
      <path
         d="m 266.09681,527.30108 0,13.24 6,0 0,-29.16 -6.04,0 0,10.92 -11.52,0 0,-10.92 -6,0 0,29.16 6,0 0,-13.24 11.56,0"
         style="font-stretch:normal;fill:#2e3436;font-family:Helvetica;-inkscape-font-specification:Helvetica Bold"
         id="path2999" />
    </g>
    <text
       xml:space="preserve"
       style="font-size:40px;font-style:normal;font-variant:normal;font-weight:normal;font-stretch:normal;line-height:125%;letter-spacing:0px;word-spacing:0px;fill:#000000;fill-opacity:1;stroke:none;font-family:Helvetica;-inkscape-font-specification:Helvetica"
       x="314.15744"
       y="280.60565"
       id="text2989"
       sodipodi:linespacing="125%"><tspan
         sodipodi:role="line"
         id="tspan2991"
         x="314.15744"
         y="280.60565" /></text>
    <g
       style="font-size:40px;font-style:normal;font-variant:normal;font-weight:bold;font-stretch:condensed;line-height:125%;letter-spacing:0px;word-spacing:0px;fill:#ce5c00;fill-opacity:1;stroke:none;font-family:Amatic;-inkscape-font-specification:Amatic Bold Condensed"
       id="text2993">
      <path
         d="m 301.01288,519.94108 c -0.04,-5.72 -3.96,-9.04 -10.68,-9.04 -6.39999,0 -10.36,3.28 -10.36,8.56 0,3.55999 1.88001,5.8 5.72,6.8 l 7.24,1.92 c 3.68,0.96 5.36,2.44 5.36,4.72 0,1.56 -0.84,3.16 -2.08,4.04 -1.16,0.8 -3,1.24 -5.36,1.24 -3.15999,0 -5.32,-0.76001 -6.72,-2.44 -1.08,-1.28 -1.56,-2.68001 -1.52,-4.48 l -3.52,0 c 0.04,2.67999 0.56,4.44 1.72,6.04 2,2.71999 5.36001,4.16 9.8,4.16 3.48,0 6.32,-0.8 8.2,-2.24 1.96,-1.56 3.2,-4.16001 3.2,-6.68 0,-3.6 -2.24,-6.24 -6.2,-7.32 l -7.32,-1.96 c -3.51999,-0.96 -4.8,-2.08001 -4.8,-4.32 0,-2.96 2.60001,-4.92 6.52,-4.92 4.64,0 7.24,2.12 7.28,5.92 l 3.52,0"
         style="font-weight:normal;font-stretch:normal;fill:#ce5c00;font-family:Helvetica;-inkscape-font-specification:Helvetica"
         id="path3002" />
      <path
         d="m 311.90878,519.58108 -3.44,0 0,-5.76 -3.32,0 0,5.76 -2.84,0 0,2.72 2.84,0 0,15.84 c 0,2.11999 1.44,3.32 4.04,3.32 0.79999,0 1.6,-0.08 2.72,-0.28 l 0,-2.8 c -0.44,0.12 -0.96001,0.16 -1.6,0.16 -1.44,0 -1.84,-0.4 -1.84,-1.88 l 0,-14.36 3.44,0 0,-2.72"
         style="font-weight:normal;font-stretch:normal;fill:#ce5c00;font-family:Helvetica;-inkscape-font-specification:Helvetica"
         id="path3004" />
      <path
         d="m 332.45681,538.58108 c -0.36,0.08 -0.52,0.08 -0.72,0.08 -1.16,0 -1.8,-0.6 -1.8,-1.64 l 0,-12.32 c 0,-3.72 -2.72,-5.72 -7.88,-5.72 -3.03999,0 -5.56,0.88 -6.96,2.44 -0.96,1.08 -1.36,2.28 -1.44,4.36 l 3.36,0 c 0.28,-2.56 1.80001,-3.72 4.92,-3.72 3,0 4.68,1.12 4.68,3.12 l 0,0.88 c 0,1.4 -0.84,2 -3.48,2.32 -4.71999,0.6 -5.44,0.76 -6.72,1.28 -2.44,1 -3.68,2.88 -3.68,5.6 0,3.79999 2.64001,6.2 6.88,6.2 2.64,0 4.76,-0.92001 7.12,-3.08 0.24,2.11999 1.28,3.08 3.44,3.08 0.68,0 1.2,-0.08 2.28,-0.36 l 0,-2.52 m -5.84,-4.64 c 0,1.12 -0.32,1.8 -1.32,2.72 -1.36,1.24 -3,1.88 -4.96,1.88 -2.6,0 -4.12,-1.24001 -4.12,-3.36 0,-2.2 1.48001,-3.32 5.04,-3.84 3.52,-0.48 4.24,-0.64 5.36,-1.16 l 0,3.76"
         style="font-weight:normal;font-stretch:normal;fill:#ce5c00;font-family:Helvetica;-inkscape-font-specification:Helvetica"
         id="path3006" />
      <path
         d="m 340.98244,519.58108 -3.44,0 0,-5.76 -3.32,0 0,5.76 -2.84,0 0,2.72 2.84,0 0,15.84 c 0,2.11999 1.44,3.32 4.04,3.32 0.8,0 1.6,-0.08 2.72,-0.28 l 0,-2.8 c -0.44,0.12 -0.96,0.16 -1.6,0.16 -1.44,0 -1.84,-0.4 -1.84,-1.88 l 0,-14.36 3.44,0 0,-2.72"
         style="font-weight:normal;font-stretch:normal;fill:#ce5c00;font-family:Helvetica;-inkscape-font-specification:Helvetica"
         id="path3008" />
      <path
         d="m 359.05333,540.54108 0,-20.96 -3.32,0 0,11.88 c 0,4.27999 -2.24,7.08 -5.72,7.08 -2.64,0 -4.32,-1.60001 -4.32,-4.12 l 0,-14.84 -3.32,0 0,16.16 c 0,3.47999 2.6,5.72 6.68,5.72 3.08,0 5.04,-1.08001 7,-3.84 l 0,2.92 3,0"
         style="font-weight:normal;font-stretch:normal;fill:#ce5c00;font-family:Helvetica;-inkscape-font-specification:Helvetica"
         id="path3010" />
      <path
         d="m 376.70181,525.42108 c -0.04,-4.12 -2.76001,-6.44 -7.6,-6.44 -4.88,0 -8.04,2.52 -8.04,6.4 0,3.27999 1.68,4.84 6.64,6.04 l 3.12,0.76 c 2.32,0.56 3.24,1.4 3.24,2.92 0,1.95999 -1.96,3.28 -4.88,3.28 -1.8,0 -3.32,-0.52 -4.16,-1.4 -0.52,-0.6 -0.76,-1.2 -0.96,-2.68 l -3.52,0 c 0.16,4.83999 2.88,7.16 8.36,7.16 5.27999,0 8.64,-2.60001 8.64,-6.64 0,-3.12 -1.76001,-4.84 -5.92,-5.84 l -3.2,-0.76 c -2.72,-0.64 -3.88,-1.52 -3.88,-3 0,-1.92 1.72,-3.16 4.44,-3.16 2.68,0 4.12,1.16 4.2,3.36 l 3.52,0"
         style="font-weight:normal;font-stretch:normal;fill:#ce5c00;font-family:Helvetica;-inkscape-font-specification:Helvetica"
         id="path3012" />
    </g>
  </g>
</svg>
